<svg width="1200" height="1200" xmlns="http://www.w3.org/2000/svg" xml:space="preserve" enable-background="new 0 0 1200 1200" version="1.1">

 <g>
  <title>Layer 1</title>
  <g stroke="null" id="svg_27">
   <path stroke="null" id="svg_2" d="m850.80431,963.03317c-1.85094,9.47213 -4.32631,18.87341 -5.4085,28.43257c-1.68359,14.8733 -2.42037,29.85353 -3.76253,47.46646c-25.6362,-2.40798 -51.44665,-4.8323 -78.40823,-7.36497c-6.6668,27.2099 -13.57989,55.42523 -20.3263,82.96c-17.69745,-4.03674 -34.10934,-7.78011 -51.65587,-11.78243c-11.11235,24.38863 -22.79677,49.2867 -33.83322,74.46868c-10.65395,24.30933 -8.05575,20.45208 -26.6397,12.54071c-76.57086,-32.59703 -153.35161,-64.70131 -229.89616,-97.35942c-56.92739,-24.28838 -113.58182,-49.2158 -170.41176,-73.73397c-40.39721,-17.42838 -80.88427,-34.64872 -122.26993,-53.67567c-0.93785,-237.50563 -0.93852,-473.29782 -0.9331,-709.08984c0.00047,-19.29281 0.02001,-19.30461 19.84131,-19.30622c70.0008,-0.00564 140.00165,0.04768 210.00212,-0.10188c5.36513,-0.01147 10.72731,-1.43224 16.09083,-2.19795c1.85224,-10.39052 4.24558,-20.72021 5.42359,-31.18666c1.57132,-13.96046 2.19812,-28.02722 3.34219,-43.56314c25.83175,2.2861 51.72436,4.5775 77.82507,6.88728c7.46052,-29.43803 14.4081,-56.85238 21.21299,-83.70385c17.75143,4.19168 34.13311,8.05996 50.86484,12.01093c9.60405,-20.19617 19.27871,-40.54087 29.88455,-62.4185c1.31753,-3.05856 1.70401,-4.58424 2.09049,-6.10984c3.02702,-7.02277 6.05401,-14.04542 11.08183,-21.44309c4.23731,-0.40514 6.47391,-0.43523 8.71047,-0.46544c38.89692,16.39384 77.84403,32.66983 116.67846,49.21025c51.54399,21.95367 103.00288,44.10711 154.48372,66.20861c2.02706,0.8703 3.90407,2.09016 7.39675,4.0887c3.07287,1.32909 4.60019,1.71651 6.12739,2.1039c36.13806,15.57017 72.27611,31.14036 109.95765,47.65261c3.06793,1.32881 4.59234,1.71582 6.11667,2.10271c39.02851,16.5164 78.05398,33.03978 117.08949,49.53965c4.43225,1.87336 8.92006,3.61474 14.32325,7.13669c0.94031,237.50936 0.94114,473.29917 0.93609,709.08901c-0.0005,19.28974 -0.01924,19.30174 -19.84427,19.30342c-70.00005,0.00539 -140.0003,-0.04826 -210.00002,0.10138c-5.36497,0.0113 -10.72689,1.43307 -16.09017,2.19931m-231.84816,-919.94358c-15.52531,-6.67523 -31.33021,-12.78408 -46.46227,-20.25579c-8.01098,-3.95553 -11.63805,-1.35844 -14.58524,5.48752c-8.2657,19.19933 -16.50493,38.41006 -25.31324,58.91697c135.12808,31.71979 269.97422,63.37349 404.82033,95.02717c0.20826,-0.76082 0.41661,-1.52165 0.62495,-2.28236c-26.34338,-11.68064 -52.68668,-23.36133 -80.24627,-36.08601c-1.53411,-0.38676 -3.06826,-0.77348 -6.66113,-1.30454c-10.2727,-4.74626 -20.54528,-9.49255 -32.03419,-15.2812c-1.53304,-0.3864 -3.06616,-0.77279 -6.65812,-1.3036c-10.27353,-4.74585 -20.54705,-9.49169 -32.03714,-15.28001c-1.53334,-0.38623 -3.06679,-0.77246 -6.65876,-1.30242c-10.27372,-4.74634 -20.54741,-9.49263 -32.03731,-15.28186c-1.5337,-0.38565 -3.0674,-0.7713 -6.66149,-1.302c-11.19156,-4.74679 -22.38323,-9.49349 -34.42849,-15.18977c-0.64847,-0.5723 -1.38431,-0.99067 -4.26633,-1.39385c-10.27217,-4.74535 -20.54434,-9.49078 -32.03258,-15.27976c-1.5337,-0.38631 -3.0674,-0.77263 -6.66232,-1.30327c-11.19164,-4.74737 -22.38332,-9.49465 -34.42865,-15.19085c-0.64814,-0.57205 -1.38365,-0.99034 -4.27172,-1.39437m-495.11735,319.25583c0,193.70026 0,387.40049 0,580.99715c319.6218,0 637.60728,0 955.50383,0c0,-230.35931 0,-459.91195 0,-689.36342c-318.80382,0 -636.78929,0 -955.50383,0c0,35.7343 0,70.66829 0,108.36627m281.88274,715.80227c78.4126,33.32378 156.82523,66.64739 235.1535,99.93543c10.53864,-23.84322 20.05579,-45.3753 30.03446,-67.9516c-135.02706,-31.67883 -269.7384,-63.28375 -404.44971,-94.8885c-0.26326,0.84584 -0.5265,1.69185 -0.78976,2.53786c46.08198,19.72127 92.164,39.44274 140.05151,60.36682m375.93099,-63.56379c14.54981,1.60971 29.09962,3.21942 43.1517,4.77412c2.17651,-19.92525 4.0767,-37.32104 6.03939,-55.28941c-144.8805,0 -289.64698,0 -434.41339,0c24.87599,4.16274 49.80432,7.38824 74.75353,10.44348c24.61018,3.01378 49.27105,5.62958 73.85545,8.83532c24.95103,3.2533 49.8017,7.28177 74.7595,10.47756c24.60225,3.15024 49.30414,5.51485 73.92512,8.52761c28.59092,3.49841 57.14143,7.32732 87.9287,12.23132m-355.16075,-780.781c125.88478,0 251.76959,0 377.65437,0c-0.00202,-0.57796 -0.00404,-1.15593 -0.00605,-1.73386c-141.6974,-18.25465 -283.39477,-36.50936 -425.22172,-54.78079c-2.34809,20.43461 -4.37297,38.05605 -6.49403,56.51466c18.29147,0 34.7978,0 54.06742,0m47.57608,-77.39092c4.60071,0.02446 9.24161,-0.33841 13.79567,0.13488c34.11951,3.54564 68.2111,7.36165 102.33368,10.87592c20.252,2.08568 40.56826,3.55208 60.81319,5.69741c32.7486,3.46999 65.46111,7.27948 98.19092,10.92686c24.65767,2.74792 49.29739,5.68019 73.98646,8.11145c13.10508,1.29045 26.298,1.68889 39.45125,2.49004c0.03408,-0.43523 0.06816,-0.87058 0.10224,-1.3059c-129.85018,-30.65256 -259.70028,-61.30511 -389.67075,-91.98608c-3.89956,14.68469 -7.4902,28.45604 -11.22749,42.18742c-2.34809,8.62697 0.08435,13.41961 12.22483,12.86799m-51.81383,866.39654c102.70034,24.41643 205.4006,48.83289 308.64837,73.37955c3.11458,-12.01355 6.16048,-23.59607 9.11688,-35.20136c5.05861,-19.85809 5.0349,-19.86281 -16.37991,-20.07387c-2.76038,-0.02734 -5.54429,0.14541 -8.27737,-0.14743c-33.6529,-3.60471 -67.28099,-7.44913 -100.9518,-10.87401c-21.63109,-2.20014 -43.36052,-3.45253 -64.97762,-5.76789c-30.92873,-3.3127 -61.7833,-7.31317 -92.69177,-10.82357c-25.56525,-2.90342 -51.14588,-5.69805 -76.75347,-8.19392c-12.95826,-1.26286 -25.99137,-1.75813 -38.99059,-2.60044c-0.10182,0.63869 -0.20367,1.27735 -0.30547,1.91587c26.48984,5.75153 52.97968,11.50292 81.56275,18.38707z" fill="#D8E2A8"/>
   <path stroke="null" id="svg_3" d="m351.91634,234.08218c-4.0866,0.97279 -9.44877,2.39356 -14.8139,2.40503c-70.00047,0.14956 -140.00132,0.09624 -210.00212,0.10188c-19.8213,0.0016 -19.84084,0.01341 -19.84131,19.30622c-0.00542,235.79202 -0.00475,471.58421 -0.00788,708.64247c-0.9205,-1.83779 -2.6412,-4.94164 -2.64281,-8.04597c-0.12288,-238.59696 -0.11139,-477.1937 -0.09431,-715.79055c0.00014,-1.77789 0.21794,-3.55579 0.43153,-6.82614c82.08522,0 163.88954,0 246.97079,0.20707z" fill="#D9E1B4"/>
   <path stroke="null" id="svg_4" d="m852.08141,963.24049c4.08618,-0.97356 9.44811,-2.39533 14.81307,-2.40663c69.99972,-0.14964 139.99997,-0.09599 210.00002,-0.10138c19.82503,-0.00169 19.84377,-0.01368 19.84427,-19.30342c0.00506,-235.78984 0.00423,-471.57965 0.00694,-708.63504c0.92124,1.84207 2.6438,4.94922 2.64549,8.05736c0.12349,238.59262 0.11219,477.18535 0.09547,715.77806c-0.00017,1.77789 -0.21912,3.55562 -0.43336,6.81837c-82.08784,0 -163.89136,0 -246.97189,-0.20732z" fill="#D9E1B4"/>
   <path stroke="null" id="svg_5" d="m563.22847,3.42063c-1.83574,0.90651 -4.07233,0.93661 -7.42837,0.91983c1.59628,-0.62993 4.31188,-1.21303 7.42837,-0.91983z" fill="#D9E2A9"/>
   <path stroke="null" id="svg_6" d="m964.03956,174.84141c-1.17395,0.4354 -2.69836,0.0484 -4.82514,-0.85977c1.08995,-0.33504 2.78241,-0.14878 4.82514,0.85977z" fill="#D9E2AA"/>
   <path stroke="null" id="svg_7" d="m847.96775,125.08178c-1.17934,0.43921 -2.70665,0.0518 -4.83653,-0.85875c1.09443,-0.33806 2.79151,-0.15301 4.83653,0.85875z" fill="#D9E2A9"/>
   <path stroke="null" id="svg_8" d="m543.01232,26.55441c0.43819,1.17666 0.05171,2.70234 -0.85604,4.83095c-0.33714,-1.09205 -0.15293,-2.78703 0.85604,-4.83095z" fill="#D9E2A9"/>
   <path stroke="null" id="svg_16" d="m858.40255,144.41912c-1.09686,0.33924 -2.80179,0.15647 -4.8587,-0.85436c1.1823,-0.44115 2.71644,-0.05442 4.8587,0.85436z" fill="#D9E2A9"/>
   <path stroke="null" id="svg_17" d="m664.92695,61.49986c-1.09645,0.33949 -2.80088,0.15705 -4.85729,-0.85303c1.1818,-0.44137 2.7155,-0.05506 4.85729,0.85303z" fill="#D9E2A9"/>
   <path stroke="null" id="svg_18" d="m819.70723,127.83246c-1.09612,0.33916 -2.80027,0.15713 -4.85593,-0.85259c1.18163,-0.44132 2.71475,-0.05492 4.85593,0.85259z" fill="#D9E2A9"/>
   <path stroke="null" id="svg_19" d="m781.01208,111.24901c-1.09603,0.33916 -2.80018,0.15705 -4.85643,-0.8525c1.18138,-0.44123 2.71483,-0.055 4.85643,0.8525z" fill="#D9E2A9"/>
   <path stroke="null" id="svg_20" d="m742.3159,94.66499c-1.09703,0.34052 -2.80204,0.15959 -4.8582,-0.84982c1.18265,-0.443 2.71635,-0.05735 4.8582,0.84982z" fill="#D9E2A9"/>
   <path stroke="null" id="svg_21" d="m623.65469,44.95842c-0.43067,0.21003 -1.28818,-0.05442 -2.38958,-1.02409c0.57912,-0.44071 1.31463,-0.02242 2.38958,1.02409z" fill="#D9E2A9"/>
   <path stroke="null" id="svg_22" d="m701.04466,78.12648c-0.43101,0.21011 -1.28876,-0.05456 -2.3906,-1.02456c0.5794,-0.4409 1.31524,-0.02253 2.3906,1.02456z" fill="#D9E2A9"/>
   <path stroke="null" id="svg_23" d="m748.47585,469.21915c38.14983,0 76.29986,0 115.40825,0c0.23565,4.13577 0.65604,8.10636 0.659,12.07748c0.04284,57.10796 0.9318,114.23446 -0.25624,171.31777c-0.94919,45.60336 -32.6496,81.41726 -81.32627,81.68636c-23.03278,0.1272 -44.42045,-1.93715 -64.02078,-16.36272c-20.88513,-15.37144 -28.11848,-37.29691 -33.68074,-60.47091c-0.5757,-2.3987 3.32644,-8.13099 5.88674,-8.64417c13.20978,-2.64737 26.658,-4.10744 40.02584,-5.96159c8.3966,-1.16466 13.30751,1.27721 14.88314,10.78916c1.19631,7.2229 4.34082,14.50351 8.16062,20.82692c6.50619,10.77042 16.93922,15.82879 29.21468,12.3246c12.26043,-3.49976 19.43946,-14.15261 19.89554,-25.74828c1.85539,-47.17766 2.23388,-94.41399 2.98506,-141.63143c0.01907,-1.19302 -1.94682,-2.41744 -5.13714,-4.48513c-15.26213,-1.23014 -28.37666,-1.94458 -41.48514,-1.84893c-8.1159,0.05904 -11.56212,-2.9603 -11.27879,-11.19974c0.3741,-10.87772 0.07559,-21.77854 0.06622,-32.66942z" fill="#D8E2A8"/>
   <path stroke="null" id="svg_24" d="m383.63809,469.21915c38.14992,0 76.29986,0 115.40816,0c0.23565,4.13577 0.65613,8.10636 0.65908,12.07748c0.04292,57.10796 0.93197,114.23446 -0.25616,171.31777c-0.94919,45.60336 -32.64941,81.41762 -81.32619,81.68636c-23.0327,0.1272 -44.42029,-1.93682 -64.02075,-16.36272c-20.88533,-15.37144 -28.11834,-37.29691 -33.68076,-60.47091c-0.57581,-2.3987 3.32613,-8.13099 5.88643,-8.64417c13.20975,-2.64737 26.658,-4.10744 40.02584,-5.96159c8.39652,-1.16466 13.3074,1.27737 14.88328,10.78883c1.19675,7.22307 4.34066,14.50365 8.16053,20.82709c6.50611,10.77023 16.93905,15.82895 29.21457,12.32477c12.26009,-3.49976 19.43982,-14.15227 19.89581,-25.74795c1.85556,-47.17763 2.23377,-94.41416 2.98506,-141.63159c0.01899,-1.19302 -1.94691,-2.4176 -5.13714,-4.48513c-15.26213,-1.23014 -28.37666,-1.94458 -41.48514,-1.84909c-8.1159,0.0592 -11.56193,-2.9603 -11.27871,-11.19974c0.3741,-10.87772 0.07551,-21.77854 0.06606,-32.66942z" fill="#D8E2A8"/>
   <path stroke="null" id="svg_25" d="m747.32863,469.56683c1.15659,10.5432 1.45509,21.44403 1.081,32.32174c-0.28333,8.23944 3.16289,11.25878 11.27879,11.19974c13.10848,-0.09566 26.22301,0.61879 40.28875,1.60363c-16.76167,0.61254 -34.47716,0.61254 -53.79576,0.61254c0,-14.96202 0,-30.17592 1.14722,-45.73765z" fill="#DBE4B4"/>
   <path stroke="null" id="svg_26" d="m382.49087,469.56683c1.15667,10.5432 1.45526,21.44403 1.08116,32.32174c-0.28322,8.23944 3.16281,11.25895 11.27871,11.19974c13.10848,-0.09549 26.22301,0.61895 40.28875,1.60379c-1.30924,0.75897 -3.57206,1.02718 -5.83547,1.0326c-15.45284,0.03745 -30.90593,0.01957 -47.96029,0.01957c0,-15.40182 0,-30.61571 1.14714,-46.17745z" fill="#DBE4B4"/>
  </g>
 </g>
</svg>